<svg id="Layer_1" data-name="Layer 1" xmlns="http://www.w3.org/2000/svg" xmlns:xlink="http://www.w3.org/1999/xlink" viewBox="0 0 1920 1080"><defs><style>.cls-1{fill:none;}.cls-2{clip-path:url(#clip-path);}.cls-3{fill:#fff;}</style><clipPath id="clip-path"><rect class="cls-1" x="564" y="377.64" width="69.11" height="61.81"/></clipPath></defs><g id="BRANDING_ICON" data-name="BRANDING ICON"><g class="cls-2"><g id="Group_272" data-name="Group 272"><path id="Path_140" data-name="Path 140" class="cls-3" d="M611.73,424.81a.91.91,0,0,0,1-.88v0a1,1,0,0,0-.91-1h0a1,1,0,0,0-1,.95,1,1,0,0,0,.94.95m6.37,2.26-3.06,3,.9,1.08,3.15-3.14-1-1m-11-9.16L607,418c1.1,1.09,2.2,2.19,3.32,3.26a.74.74,0,0,0,.58.09,2.62,2.62,0,1,1,1.63,5,2.68,2.68,0,0,1-1.87-.09,2.53,2.53,0,0,1-1.47-3,.9.9,0,0,0-.3-1.05c-.7-.65-1.37-1.35-2-2l-1-1c1,3,2.13,5.9,3.24,8.81a.83.83,0,0,0,.86.57,15.57,15.57,0,0,1,2.16,0,3.29,3.29,0,0,0,3.29-1.4c.18-.26.47-.43.66-.68a1.42,1.42,0,0,0,.28-.67c0-1.2,0-2.4.06-3.6a.93.93,0,0,0-.7-1c-.9-.32-1.8-.68-2.69-1l-5.94-2.25M627,432.54c-.48.66-.77.73-1.49.34L620,429.82l-2.26,2.25,2.66,4.78c.17.31.35.61.51.92a.84.84,0,0,1-.22,1.16l-.07,0a.83.83,0,0,1-1.12-.31.3.3,0,0,1,0-.1c-1-1.68-1.9-3.38-2.83-5.08a.86.86,0,0,0-.82-.58,1.23,1.23,0,0,1-.76-.29c-.69-.67-1.58-1.19-1.84-2.23,0-.1-.28-.2-.43-.2-.89,0-1.78,0-2.66,0a2.76,2.76,0,0,1-2-.77,1.07,1.07,0,0,0-.69-.21H589c-5.3,0-10.59,0-15.88,0a2.75,2.75,0,0,1-3-1.91v-6.54c.27-.38.58-.69,1.1-.5s.57.61.57,1.09c0,1.73,0,3.47,0,5.21,0,.72.24,1,1,1h34l.35,0c-.07-.22-.12-.4-.18-.57-1.07-2.8-2.14-5.58-3.19-8.38a2,2,0,0,1,1-2.67,2.41,2.41,0,0,1,.65-.18,2.27,2.27,0,0,1,1,.15c3.35,1.26,6.71,2.52,10.05,3.8a2.4,2.4,0,0,1,1.63,2.4c0,.89,0,1.78,0,2.66,0,.33.12.43.41.63a14.64,14.64,0,0,1,2.09,1.85.79.79,0,0,0,.67.33h3c.82,0,1-.23,1-1.06V403.77c0-.2-.06-.45,0-.6a1.54,1.54,0,0,1,.62-.62c.45-.18.74.18,1,.5v24.28a2.67,2.67,0,0,1-3,1.9c-.46,0-.92,0-1.48,0l.18.17c1.18.66,2.36,1.3,3.53,2a8.25,8.25,0,0,1,.81.62Z"/><path id="Path_141" data-name="Path 141" class="cls-3" d="M584.56,382.31s0,.05,0,.06a.87.87,0,0,1,.4,1.1c-.19.47-.61.52-1.06.52H572.75c-.72,0-1,.25-1,1v4.51h53.53c0-1.63,0-3.24,0-4.84,0-.22-.39-.46-.65-.63s-.36,0-.54,0H588.45c-.47,0-.91,0-1.11-.53s.09-.83.44-1.13h37.33a2.94,2.94,0,0,1,1.89,1.89v15.51c-.26.4-.59.7-1.1.52s-.58-.6-.57-1.08c0-2.44,0-4.88,0-7.32v-.64H571.78v25.67c0,.48,0,.9-.56,1.09s-.83-.12-1.11-.5V384.2a2.94,2.94,0,0,1,1.89-1.89Z"/><path id="Path_142" data-name="Path 142" class="cls-3" d="M581.8,403.84a12.34,12.34,0,0,0,1.36,0,.79.79,0,0,0,0-1.56c-.43,0-.87,0-1.34,0Zm0,3.87c.6,0,1.16,0,1.7,0a1,1,0,0,0,1-1,1,1,0,0,0-.85-1.1,15.79,15.79,0,0,0-1.82,0Zm3.31-3.27a2.78,2.78,0,0,1,.91,3,2.66,2.66,0,0,1-2.51,1.91c-.84,0-1.67,0-2.5,0a.8.8,0,0,1-.89-.7.67.67,0,0,1,0-.2q0-3.53,0-7a.8.8,0,0,1,.9-.88h2A2.46,2.46,0,0,1,585.5,403a2.36,2.36,0,0,1-.26,1.14l-.14.29"/><path id="Path_143" data-name="Path 143" class="cls-3" d="M607.58,405.88v-1.35c0-1,0-2,0-2.94,0-.66.32-1,.85-1s.8.34.81,1c0,2.27,0,4.54,0,6.81,0,.45-.12.83-.58,1a.91.91,0,0,1-1.07-.49c-1-1.41-2-2.81-3-4.22l-.42-.55v1c0,1.14,0,2.29,0,3.43a.8.8,0,0,1-.75.86h-.06a.8.8,0,0,1-.84-.77v-.07c0-2.37,0-4.73,0-7.1a.79.79,0,0,1,.61-.83.87.87,0,0,1,1,.44c1,1.4,2,2.81,3,4.21.11.16.23.31.45.6"/><path id="Path_144" data-name="Path 144" class="cls-3" d="M612.12,407.7c1.12.06,2.22.16,2.81-1a3.59,3.59,0,0,0-.13-3.69c-.64-1-1.69-.75-2.68-.75Zm-1.7-2.77c0-1.12,0-2.25,0-3.37,0-.69.28-1,1-1h1.78a3.52,3.52,0,0,1,3.6,2.76,5.34,5.34,0,0,1-.35,4.09,3.42,3.42,0,0,1-3.17,1.95h-1.83c-.7,0-1-.29-1-1,0-1.16,0-2.32,0-3.49Z"/><path id="Path_145" data-name="Path 145" class="cls-3" d="M589,404.26q.65,0,1.29,0a1.07,1.07,0,0,0,.9-1,1,1,0,0,0-.88-1,11.28,11.28,0,0,0-1.3,0Zm0,2.12c0,.78,0,1.39,0,2s-.31,1-.84,1-.82-.36-.82-1v-6.76c0-.75.27-1,1-1h1.72a2.73,2.73,0,0,1,2.74,2.27,2.67,2.67,0,0,1-1.76,2.93l-.28.1,1.32,1.5.47.54a.83.83,0,0,1,.08,1.18l-.1.09a.85.85,0,0,1-1.2-.13l0,0c-.58-.64-1.15-1.3-1.72-1.95l-.63-.7"/><path id="Path_146" data-name="Path 146" class="cls-3" d="M597.7,403.67l-.89,2.26h1.78l-.9-2.26m3.76,5c-.21.23-.39.59-.64.65a1.62,1.62,0,0,1-.93-.26c-.12-.05-.16-.28-.22-.43-.4-1-.4-1-1.49-1a2.53,2.53,0,0,1-.55,0c-1-.15-1.77,0-2,1.23a.76.76,0,0,1-.93.52l-.15-.06a.8.8,0,0,1-.44-1v0c.93-2.39,1.86-4.77,2.83-7.14a1.06,1.06,0,0,1,.76-.5.92.92,0,0,1,.73.44c1,2.4,1.94,4.82,2.89,7.23a.86.86,0,0,1,0,.28l.1.09"/><path id="Path_147" data-name="Path 147" class="cls-3" d="M575.4,415.21h2.77v-2.74H575.4Zm1.39,1.7h-1.5a1.5,1.5,0,0,1-1.58-1.4v-.11c0-1,0-2.07,0-3.1a1.47,1.47,0,0,1,1.42-1.52h.14c.37,0,.68,0,.93-.4a.81.81,0,0,1,1.14-.08l.12.13a1,1,0,0,0,.6.33c1.29.06,1.77.54,1.83,1.84a.94.94,0,0,0,.3.56.85.85,0,0,1,.14,1.2l-.14.15a1,1,0,0,0-.31.61c0,1.23-.6,1.78-1.82,1.79h-1.28"/><path id="Path_148" data-name="Path 148" class="cls-3" d="M621.72,412.47h-2.78v2.73h2.78Zm-1.4,4.44h-1.44a1.53,1.53,0,0,1-1.63-1.4v-.18a1,1,0,0,0-.4-.93c-.43-.28-.32-.87.07-1.25a1,1,0,0,0,.3-.61c0-1.21.58-1.75,1.79-1.76a.7.7,0,0,0,.67-.34.82.82,0,0,1,1.15-.17.77.77,0,0,1,.18.18,1,1,0,0,0,.61.31c1.25.05,1.78.58,1.79,1.82,0,.86,0,1.73,0,2.6a1.56,1.56,0,0,1-1.36,1.73,1.78,1.78,0,0,1-.4,0h-1.33"/><path id="Path_149" data-name="Path 149" class="cls-3" d="M578.16,394.77H575.4v2.74h2.76Zm-1.37-1.7h1.44a1.51,1.51,0,0,1,1.63,1.39.88.88,0,0,1,0,.23.89.89,0,0,0,.4.87.8.8,0,0,1-.07,1.25,1,1,0,0,0-.31.61c0,1.22-.57,1.76-1.77,1.78a.67.67,0,0,0-.68.33.81.81,0,0,1-1.33,0,1,1,0,0,0-.62-.3c-1.23-.06-1.78-.59-1.78-1.82,0-.89,0-1.77,0-2.66a1.53,1.53,0,0,1,1.37-1.67h1.71"/><path id="Path_150" data-name="Path 150" class="cls-3" d="M618.93,397.5h2.78v-2.74h-2.78Zm1.4-4.43h1.5a1.47,1.47,0,0,1,1.56,1.37.28.28,0,0,0,0,.09q.06,1.61,0,3.21a1.47,1.47,0,0,1-1.48,1.46h-.14c-.34,0-.61,0-.83.36a.76.76,0,0,1-1.05.19.86.86,0,0,1-.19-.19.79.79,0,0,0-.78-.37,1.53,1.53,0,0,1-1.69-1.34,1.7,1.7,0,0,1,0-.39.66.66,0,0,0-.31-.68.8.8,0,0,1-.21-1.12.84.84,0,0,1,.21-.21,1,1,0,0,0,.3-.61,1.59,1.59,0,0,1,1.39-1.78,1.61,1.61,0,0,1,.44,0h1.28"/><path id="Path_151" data-name="Path 151" class="cls-3" d="M583.92,414.67a5.77,5.77,0,0,1-.72,0,.81.81,0,0,1-.77-.85h0a.77.77,0,0,1,.77-.79h0q.66,0,1.32,0a.82.82,0,0,1,.84.78.85.85,0,0,1-.78.86,4.33,4.33,0,0,1-.72,0"/><path id="Path_152" data-name="Path 152" class="cls-3" d="M613.21,413c.24,0,.48,0,.72,0a.75.75,0,0,1,.75.74.71.71,0,0,1-.55.84h-.06a6.91,6.91,0,0,1-1.76,0,.71.71,0,0,1-.61-.8.13.13,0,0,0,0-.06.75.75,0,0,1,.77-.72c.24,0,.48,0,.72,0"/><path id="Path_153" data-name="Path 153" class="cls-3" d="M613.18,397c-.24,0-.48,0-.72,0a.77.77,0,0,1-.75-.79h0a.74.74,0,0,1,.66-.82h0a7.13,7.13,0,0,1,1.6,0,.75.75,0,0,1,.7.78.15.15,0,0,1,0,.07.77.77,0,0,1-.75.78h0c-.24,0-.48,0-.72,0Z"/><path id="Path_154" data-name="Path 154" class="cls-3" d="M608.32,397c-.24,0-.48,0-.72,0a.77.77,0,0,1-.77-.76,0,0,0,0,1,0,0,.75.75,0,0,1,.65-.84h0a8,8,0,0,1,1.55,0,.75.75,0,0,1,.71.78v.06a.77.77,0,0,1-.73.79h0q-.36,0-.72,0"/><path id="Path_155" data-name="Path 155" class="cls-3" d="M583.91,397c-.23,0-.48,0-.71,0a.77.77,0,0,1-.77-.76v0a.76.76,0,0,1,.65-.84h0a8,8,0,0,1,1.55,0,.75.75,0,0,1,.72.79v.05a.76.76,0,0,1-.73.79h0c-.24,0-.48,0-.72,0"/><path id="Path_156" data-name="Path 156" class="cls-3" d="M588.79,397c-.24,0-.48,0-.71,0a.76.76,0,0,1-.76-.76v0a.75.75,0,0,1,.64-.84H588a6.7,6.7,0,0,1,1.55,0,.75.75,0,0,1,.71.79v.05a.76.76,0,0,1-.74.78h0c-.23,0-.48,0-.72,0"/><path id="Path_157" data-name="Path 157" class="cls-3" d="M588.79,413c.23,0,.45,0,.67,0a.79.79,0,0,1,.82.76v0a.77.77,0,0,1-.69.84h0a8,8,0,0,1-1.55,0,.82.82,0,0,1,.11-1.63h.66"/><path id="Path_158" data-name="Path 158" class="cls-3" d="M608.33,413c.24,0,.48,0,.72,0a.76.76,0,0,1,.75.75.73.73,0,0,1-.57.84h-.05a7.43,7.43,0,0,1-1.7,0,.72.72,0,0,1-.64-.8v0a.76.76,0,0,1,.75-.77h0c.23,0,.48,0,.72,0"/><path id="Path_159" data-name="Path 159" class="cls-3" d="M603.44,413h.66a.76.76,0,0,1,.81.71v0a.74.74,0,0,1-.57.86h-.08a6.51,6.51,0,0,1-1.65,0,.73.73,0,0,1-.66-.81.17.17,0,0,1,0-.07.75.75,0,0,1,.76-.73c.24,0,.48,0,.72,0Z"/><path id="Path_160" data-name="Path 160" class="cls-3" d="M603.42,397c-.24,0-.48,0-.72,0a.76.76,0,0,1-.74-.75.74.74,0,0,1,.6-.86h.06a7.78,7.78,0,0,1,1.6,0,.75.75,0,0,1,.7.79v.06a.78.78,0,0,1-.75.78h0c-.23,0-.47,0-.71,0"/><path id="Path_161" data-name="Path 161" class="cls-3" d="M593.69,413c.24,0,.48,0,.72,0a.74.74,0,0,1,.74.74.73.73,0,0,1-.57.85h0a6.45,6.45,0,0,1-1.7,0,.73.73,0,0,1-.65-.8s0-.06,0-.09A.75.75,0,0,1,593,413c.24,0,.48,0,.72,0Z"/><path id="Path_162" data-name="Path 162" class="cls-3" d="M593.64,397c-.22,0-.44,0-.66,0a.76.76,0,0,1-.78-.76h0a.77.77,0,0,1,.69-.86h.05a9.27,9.27,0,0,1,1.49,0,.77.77,0,0,1,.73.81h0a.8.8,0,0,1-.77.82h0c-.24,0-.48,0-.72,0"/><path id="Path_163" data-name="Path 163" class="cls-3" d="M598.55,397c-.24,0-.48,0-.71,0a.77.77,0,0,1-.76-.77v0a.75.75,0,0,1,.65-.84h.06a6.61,6.61,0,0,1,1.54,0,.74.74,0,0,1,.7.78v.06a.75.75,0,0,1-.73.78h0a5.77,5.77,0,0,1-.72,0"/><path id="Path_164" data-name="Path 164" class="cls-3" d="M598.6,413h.61a.82.82,0,0,1,.07,1.63,9.27,9.27,0,0,1-1.49,0,.79.79,0,0,1-.72-.84s0,0,0-.05a.76.76,0,0,1,.79-.74h.73"/><path id="Path_165" data-name="Path 165" class="cls-3" d="M619.48,402.76a5.81,5.81,0,0,1,0-.72.76.76,0,0,1,.83-.65.72.72,0,0,1,.76.67,9.14,9.14,0,0,1,0,1.48.74.74,0,0,1-.78.68h0a.75.75,0,0,1-.79-.64c0-.27,0-.55-.06-.82"/><path id="Path_166" data-name="Path 166" class="cls-3" d="M577.64,402.79a7.35,7.35,0,0,1-.07.82.75.75,0,0,1-.81.61.73.73,0,0,1-.77-.66,8.53,8.53,0,0,1,0-1.43.74.74,0,0,1,.74-.74h.06a.77.77,0,0,1,.81.72v0a3.64,3.64,0,0,1,0,.66h0"/><path id="Path_167" data-name="Path 167" class="cls-3" d="M575.94,407.14a6,6,0,0,1,0-.74.74.74,0,0,1,.77-.65.71.71,0,0,1,.8.61h0a7,7,0,0,1,0,1.59.7.7,0,0,1-.78.62h0a.75.75,0,0,1-.79-.7c0-.25,0-.49,0-.74"/><path id="Path_168" data-name="Path 168" class="cls-3" d="M621.14,407.18q0,.33,0,.66a.76.76,0,0,1-.78.74h0a.76.76,0,0,1-.81-.69v-.05a7.84,7.84,0,0,1,0-1.37.74.74,0,0,1,.77-.72h.06a.77.77,0,0,1,.79.74v0c0,.22,0,.44,0,.66Z"/><path id="Path_169" data-name="Path 169" class="cls-3" d="M582.64,385.9a.84.84,0,0,1,.81.86h0a.82.82,0,0,1-.89.76.83.83,0,0,1-.76-.85.85.85,0,0,1,.85-.78"/><path id="Path_170" data-name="Path 170" class="cls-3" d="M578.8,385.9a.85.85,0,0,1,.84.84.83.83,0,0,1-.82.8.79.79,0,0,1-.83-.77h0a.81.81,0,0,1,.77-.86h0"/><path id="Path_171" data-name="Path 171" class="cls-3" d="M575.81,386.73a.79.79,0,0,1-.77.81h0a.82.82,0,0,1-.86-.78v0a.84.84,0,0,1,.86-.83.8.8,0,0,1,.78.82"/></g></g></g></svg>