<svg id="Layer_1" data-name="Layer 1" xmlns="http://www.w3.org/2000/svg" xmlns:xlink="http://www.w3.org/1999/xlink" viewBox="0 0 1920 1080"><defs><style>.cls-1{fill:none;}.cls-2{clip-path:url(#clip-path);}.cls-3{fill:#051430;}.cls-4{opacity:0.1;}.cls-5{clip-path:url(#clip-path-3);}.cls-6{fill:#e5ffff;}.cls-14,.cls-7{fill:#fff;}.cls-8{opacity:0.2;}.cls-9{clip-path:url(#clip-path-4);}.cls-10{fill:#e6ffff;}.cls-11{opacity:0.49;}.cls-12{clip-path:url(#clip-path-5);}.cls-13,.cls-14{isolation:isolate;}.cls-14{font-size:22.59px;font-family:OpenSans-Regular, Open Sans;}</style><clipPath id="clip-path"><rect class="cls-1" x="872.52" y="423.08" width="82.63" height="92.13"/></clipPath><clipPath id="clip-path-3"><rect class="cls-1" x="933.58" y="488.82" width="20.88" height="24.35"/></clipPath><clipPath id="clip-path-4"><rect class="cls-1" x="898.19" y="424.84" width="8.99" height="4.45"/></clipPath><clipPath id="clip-path-5"><rect class="cls-1" x="880.23" y="431.78" width="63.47" height="63.47"/></clipPath></defs><g id="MAGNIFYING_GLASS" data-name="MAGNIFYING GLASS"><g class="cls-2"><g id="Group_287" data-name="Group 287"><g id="Group_286" data-name="Group 286"><g class="cls-2"><g id="Group_285" data-name="Group 285"><path id="Path_172" data-name="Path 172" class="cls-3" d="M941.22,486.58l-12.82,10,10.82,17.69a2,2,0,0,0,2.69.65,1.8,1.8,0,0,0,.44-.38l12.8-14.49Z"/><g id="Group_278" data-name="Group 278" class="cls-4"><g id="Group_277" data-name="Group 277"><g class="cls-5"><g id="Group_276" data-name="Group 276"><rect id="Rectangle_166" data-name="Rectangle 166" class="cls-6" x="940.99" y="487.91" width="6.07" height="26.16" transform="translate(-108.26 687.69) rotate(-38.02)"/></g></g></g></g><path id="Path_173" data-name="Path 173" class="cls-7" d="M881,487.9A40.12,40.12,0,1,0,888,431.58,40.13,40.13,0,0,0,881,487.9h0m6.61-5.16a31.74,31.74,0,1,1,44.55,5.47,31.75,31.75,0,0,1-44.55-5.47h0"/><g id="Group_281" data-name="Group 281" class="cls-8"><g id="Group_280" data-name="Group 280"><g class="cls-9"><g id="Group_279" data-name="Group 279"><path id="Path_174" data-name="Path 174" class="cls-10" d="M902.16,425.27c2.47-.73,4.7-.51,5,.48s-1.47,2.38-3.94,3.11-4.7.51-5-.48,1.48-2.38,3.94-3.11"/></g></g></g></g><g id="Group_284" data-name="Group 284" class="cls-11"><g id="Group_283" data-name="Group 283"><g class="cls-12"><g id="Group_282" data-name="Group 282"><path id="Path_175" data-name="Path 175" class="cls-3" d="M943.69,464.11a31.73,31.73,0,1,1-31.13-32.33,31.73,31.73,0,0,1,31.13,32.33h0"/></g></g></g></g></g></g></g><g id="SEO" class="cls-13"><text class="cls-14" transform="translate(891.9 470.1)">SEO</text></g></g></g></g></svg>